<svg xmlns="http://www.w3.org/2000/svg" version="1.1" xmlns:xlink="http://www.w3.org/1999/xlink" width="512" height="512" x="0" y="0" viewBox="0 0 64 64" style="enable-background:new 0 0 512 512" xml:space="preserve" class=""><g><g data-name="Fast Internet"><path d="M32 8a28 28 0 0 0-19.799 47.799 1 1 0 0 0 1.414 0l2.828-2.828a1 1 0 0 0-1.414-1.414l-2.104 2.104a25.937 25.937 0 0 1-4.554-6.792l2.762-1.143a1 1 0 0 0-.764-1.848l-2.763 1.144A25.94 25.94 0 0 1 6.024 37H9a1 1 0 0 0 0-2H6.025a25.843 25.843 0 0 1 1.59-8.018l2.754 1.14a1 1 0 0 0 .764-1.848l-2.746-1.137a26.087 26.087 0 0 1 4.547-6.79l2.095 2.096a1 1 0 0 0 1.414-1.414l-2.095-2.095a26.085 26.085 0 0 1 6.789-4.547l1.137 2.747a1 1 0 0 0 1.848-.766l-1.14-2.753A25.842 25.842 0 0 1 31 10.025V13a1 1 0 0 0 2 0v-2.975a25.842 25.842 0 0 1 8.018 1.59l-1.14 2.753a1 1 0 0 0 1.848.766l1.137-2.747a26.085 26.085 0 0 1 6.79 4.547l-2.096 2.095a1 1 0 0 0 1.414 1.414l2.095-2.095a26.087 26.087 0 0 1 4.547 6.79l-2.746 1.136a1 1 0 0 0 .764 1.848l2.754-1.14A25.843 25.843 0 0 1 57.975 35H55a1 1 0 0 0 0 2h2.976a25.94 25.94 0 0 1-1.582 8.022l-2.763-1.144a1 1 0 0 0-.764 1.848l2.762 1.143a25.937 25.937 0 0 1-4.554 6.792l-2.104-2.104a1 1 0 0 0-1.414 1.414l2.828 2.828a1 1 0 0 0 1.414 0A28 28 0 0 0 32 8Z" fill="#d9042b" opacity="1" data-original="#000000"></path><path d="m48.482 46.093-12.735-8.735A3.955 3.955 0 0 0 36 36a4.046 4.046 0 1 0-1.387 3.004l12.738 8.737a1 1 0 0 0 1.13-1.648ZM32 38a2 2 0 1 1 2-2 2.002 2.002 0 0 1-2 2ZM37.288 49.553a2.266 2.266 0 0 0 .169-.85 2.307 2.307 0 0 0-2.313-2.298H33.77a1 1 0 0 0-1 1v5.19a1 1 0 0 0 1 1h2.03a2.288 2.288 0 0 0 1.488-4.042ZM35.144 49h-.374v-.595h.374a.298.298 0 1 1 0 .595Zm.656 2.595h-1.03V51h1.03a.298.298 0 1 1 0 .595ZM28.1 50.573l-.213-.272v2.294a1 1 0 0 1-2 0v-5.19a1.001 1.001 0 0 1 1.787-.618l1.214 1.549 1.214-1.548a1 1 0 0 1 1.787.617v5.19a1 1 0 0 1-2 0V50.3l-.215.273a1.001 1.001 0 0 1-1.573 0Z" fill="#d9042b" opacity="1" data-original="#000000"></path></g></g></svg>